<svg width="44" height="44" viewBox="0 0 44 44" fill="none" xmlns="http://www.w3.org/2000/svg">
<rect width="44" height="44" rx="9.26316" fill="url(#paint0_radial_662_2705)"/>
<rect width="44" height="44" rx="9.26316" fill="url(#paint1_radial_662_2705)"/>
<path d="M17.2674 19.3263H19.6619L20.0695 16.3543H21.8357L21.4281 19.3263H23.8396L24.2472 16.3543H26.0304L25.6228 19.3263H27.9324L27.7286 20.9226H25.402L25.0114 23.7247H27.321L27.1342 25.3041H24.7906L24.3321 28.6666H22.549L23.0075 25.3041H20.596L20.1375 28.6666H18.3713L18.8298 25.3041H16.4862L16.69 23.7247H19.0506L19.4412 20.9226H17.0976L17.2674 19.3263ZM21.2073 20.9226L20.8167 23.7247H23.2283L23.6189 20.9226H21.2073Z" fill="white"/>
<defs>
<radialGradient id="paint0_radial_662_2705" cx="0" cy="0" r="1" gradientUnits="userSpaceOnUse" gradientTransform="translate(17.3684 56.3509) rotate(-77.6309) scale(90.0912)">
<stop stop-color="#5E9CFF"/>
<stop offset="1" stop-color="white"/>
</radialGradient>
<radialGradient id="paint1_radial_662_2705" cx="0" cy="0" r="1" gradientUnits="userSpaceOnUse" gradientTransform="translate(17.3684 56.3509) rotate(-72.3273) scale(212.898)">
<stop stop-color="#3482FF"/>
<stop offset="1" stop-color="white"/>
</radialGradient>
</defs>
</svg>
