<svg width="38" height="38" viewBox="0 0 38 38" fill="none" xmlns="http://www.w3.org/2000/svg">
<g clip-path="url(#clip0_586_1986)">
<path d="M18.4834 10.6821C17.8694 11.2543 17.3768 11.9443 17.0352 12.711C16.6936 13.4776 16.51 14.3053 16.4952 15.1444C16.4803 15.9836 16.6347 16.8172 16.9491 17.5954C17.2634 18.3737 17.7313 19.0806 18.3248 19.6741C18.9183 20.2676 19.6252 20.7355 20.4034 21.0498C21.1817 21.3642 22.0152 21.5185 22.8544 21.5037C23.6936 21.4889 24.5212 21.3052 25.2879 20.9636C26.0546 20.622 26.7446 20.1295 27.3167 19.5155C27.0517 23.878 23.4301 27.333 19.0009 27.333C14.3976 27.333 10.6667 23.6021 10.6667 18.9996C10.6667 14.5705 14.1217 10.9488 18.4834 10.6821Z" fill="white"/>
</g>
<defs>
<clipPath id="clip0_586_1986">
<rect width="38" height="38" fill="white"/>
</clipPath>
</defs>
</svg>
