<svg width="38" height="38" viewBox="0 0 38 38" fill="none" xmlns="http://www.w3.org/2000/svg">
<g clip-path="url(#clip0_582_1963)">
<path d="M18.25 10.75V8.5C18.25 8.30109 18.329 8.11032 18.4697 7.96967C18.6103 7.82902 18.8011 7.75 19 7.75C19.1989 7.75 19.3897 7.82902 19.5303 7.96967C19.671 8.11032 19.75 8.30109 19.75 8.5V10.75C19.75 10.9489 19.671 11.1397 19.5303 11.2803C19.3897 11.421 19.1989 11.5 19 11.5C18.8011 11.5 18.6103 11.421 18.4697 11.2803C18.329 11.1397 18.25 10.9489 18.25 10.75ZM25 19C25 20.1867 24.6481 21.3467 23.9888 22.3334C23.3295 23.3201 22.3925 24.0892 21.2961 24.5433C20.1997 24.9974 18.9933 25.1162 17.8295 24.8847C16.6656 24.6532 15.5965 24.0818 14.7574 23.2426C13.9182 22.4035 13.3468 21.3344 13.1153 20.1705C12.8838 19.0067 13.0026 17.8003 13.4567 16.7039C13.9108 15.6075 14.6799 14.6705 15.6666 14.0112C16.6533 13.3519 17.8133 13 19 13C20.5908 13.0017 22.1159 13.6344 23.2407 14.7593C24.3656 15.8841 24.9983 17.4092 25 19ZM23.5 19C23.5 18.11 23.2361 17.24 22.7416 16.4999C22.2471 15.7599 21.5443 15.1831 20.7221 14.8425C19.8998 14.5019 18.995 14.4128 18.1221 14.5865C17.2492 14.7601 16.4474 15.1887 15.818 15.818C15.1887 16.4474 14.7601 17.2492 14.5865 18.1221C14.4128 18.995 14.5019 19.8998 14.8425 20.7221C15.1831 21.5443 15.7599 22.2471 16.4999 22.7416C17.24 23.2361 18.11 23.5 19 23.5C20.1931 23.4988 21.337 23.0243 22.1806 22.1806C23.0243 21.337 23.4988 20.1931 23.5 19ZM12.4694 13.5306C12.6101 13.6714 12.801 13.7504 13 13.7504C13.199 13.7504 13.3899 13.6714 13.5306 13.5306C13.6714 13.3899 13.7504 13.199 13.7504 13C13.7504 12.801 13.6714 12.6101 13.5306 12.4694L12.0306 10.9694C11.8899 10.8286 11.699 10.7496 11.5 10.7496C11.301 10.7496 11.1101 10.8286 10.9694 10.9694C10.8286 11.1101 10.7496 11.301 10.7496 11.5C10.7496 11.699 10.8286 11.8899 10.9694 12.0306L12.4694 13.5306ZM12.4694 24.4694L10.9694 25.9694C10.8286 26.1101 10.7496 26.301 10.7496 26.5C10.7496 26.699 10.8286 26.8899 10.9694 27.0306C11.1101 27.1714 11.301 27.2504 11.5 27.2504C11.699 27.2504 11.8899 27.1714 12.0306 27.0306L13.5306 25.5306C13.6003 25.4609 13.6556 25.3782 13.6933 25.2872C13.731 25.1961 13.7504 25.0985 13.7504 25C13.7504 24.9015 13.731 24.8039 13.6933 24.7128C13.6556 24.6218 13.6003 24.5391 13.5306 24.4694C13.4609 24.3997 13.3782 24.3444 13.2872 24.3067C13.1961 24.269 13.0985 24.2496 13 24.2496C12.9015 24.2496 12.8039 24.269 12.7128 24.3067C12.6218 24.3444 12.5391 24.3997 12.4694 24.4694ZM25 13.75C25.0985 13.7501 25.1961 13.7307 25.2871 13.6931C25.3782 13.6555 25.4609 13.6003 25.5306 13.5306L27.0306 12.0306C27.1714 11.8899 27.2504 11.699 27.2504 11.5C27.2504 11.301 27.1714 11.1101 27.0306 10.9694C26.8899 10.8286 26.699 10.7496 26.5 10.7496C26.301 10.7496 26.1101 10.8286 25.9694 10.9694L24.4694 12.4694C24.3644 12.5743 24.2928 12.708 24.2639 12.8535C24.2349 12.9991 24.2497 13.15 24.3065 13.2871C24.3633 13.4242 24.4596 13.5414 24.583 13.6238C24.7065 13.7062 24.8516 13.7501 25 13.75ZM25.5306 24.4694C25.3899 24.3286 25.199 24.2496 25 24.2496C24.801 24.2496 24.6101 24.3286 24.4694 24.4694C24.3286 24.6101 24.2496 24.801 24.2496 25C24.2496 25.199 24.3286 25.3899 24.4694 25.5306L25.9694 27.0306C26.0391 27.1003 26.1218 27.1556 26.2128 27.1933C26.3039 27.231 26.4015 27.2504 26.5 27.2504C26.5985 27.2504 26.6961 27.231 26.7872 27.1933C26.8782 27.1556 26.9609 27.1003 27.0306 27.0306C27.1003 26.9609 27.1556 26.8782 27.1933 26.7872C27.231 26.6961 27.2504 26.5985 27.2504 26.5C27.2504 26.4015 27.231 26.3039 27.1933 26.2128C27.1556 26.1218 27.1003 26.0391 27.0306 25.9694L25.5306 24.4694ZM11.5 19C11.5 18.8011 11.421 18.6103 11.2803 18.4697C11.1397 18.329 10.9489 18.25 10.75 18.25H8.5C8.30109 18.25 8.11032 18.329 7.96967 18.4697C7.82902 18.6103 7.75 18.8011 7.75 19C7.75 19.1989 7.82902 19.3897 7.96967 19.5303C8.11032 19.671 8.30109 19.75 8.5 19.75H10.75C10.9489 19.75 11.1397 19.671 11.2803 19.5303C11.421 19.3897 11.5 19.1989 11.5 19ZM19 26.5C18.8011 26.5 18.6103 26.579 18.4697 26.7197C18.329 26.8603 18.25 27.0511 18.25 27.25V29.5C18.25 29.6989 18.329 29.8897 18.4697 30.0303C18.6103 30.171 18.8011 30.25 19 30.25C19.1989 30.25 19.3897 30.171 19.5303 30.0303C19.671 29.8897 19.75 29.6989 19.75 29.5V27.25C19.75 27.0511 19.671 26.8603 19.5303 26.7197C19.3897 26.579 19.1989 26.5 19 26.5ZM29.5 18.25H27.25C27.0511 18.25 26.8603 18.329 26.7197 18.4697C26.579 18.6103 26.5 18.8011 26.5 19C26.5 19.1989 26.579 19.3897 26.7197 19.5303C26.8603 19.671 27.0511 19.75 27.25 19.75H29.5C29.6989 19.75 29.8897 19.671 30.0303 19.5303C30.171 19.3897 30.25 19.1989 30.25 19C30.25 18.8011 30.171 18.6103 30.0303 18.4697C29.8897 18.329 29.6989 18.25 29.5 18.25Z" fill="#1D1D1D"/>
</g>
<defs>
<clipPath id="clip0_582_1963">
<rect width="38" height="38" fill="white"/>
</clipPath>
</defs>
</svg>
