<svg width="22" height="22" viewBox="0 0 22 22" fill="none" xmlns="http://www.w3.org/2000/svg">
<path d="M2.75 4.58325H6.41667M19.25 4.58325H10.0833M2.75 10.9999H13.75M19.25 10.9999H17.4167M2.75 17.4166H4.58333M19.25 17.4166H8.25" stroke="white" stroke-width="1.46667" stroke-linecap="round"/>
<path d="M8.24999 6.41667C9.26251 6.41667 10.0833 5.59586 10.0833 4.58333C10.0833 3.57081 9.26251 2.75 8.24999 2.75C7.23747 2.75 6.41666 3.57081 6.41666 4.58333C6.41666 5.59586 7.23747 6.41667 8.24999 6.41667Z" stroke="white" stroke-width="1.46667" stroke-linecap="round"/>
<path d="M15.5833 12.8334C16.5959 12.8334 17.4167 12.0126 17.4167 11.0001C17.4167 9.98756 16.5959 9.16675 15.5833 9.16675C14.5708 9.16675 13.75 9.98756 13.75 11.0001C13.75 12.0126 14.5708 12.8334 15.5833 12.8334Z" stroke="white" stroke-width="1.46667" stroke-linecap="round"/>
<path d="M6.41668 19.2499C7.4292 19.2499 8.25001 18.4291 8.25001 17.4166C8.25001 16.4041 7.4292 15.5833 6.41668 15.5833C5.40415 15.5833 4.58334 16.4041 4.58334 17.4166C4.58334 18.4291 5.40415 19.2499 6.41668 19.2499Z" stroke="white" stroke-width="1.46667" stroke-linecap="round"/>
</svg>
