<svg width="40" height="40" viewBox="0 0 40 40" fill="none" xmlns="http://www.w3.org/2000/svg">
<path d="M19.9999 25.8976C21.5634 25.8955 23.0623 25.2735 24.1679 24.168C25.2734 23.0624 25.8954 21.5635 25.8975 20V11.7948C25.8975 10.2306 25.2761 8.73057 24.1701 7.62457C23.0641 6.51856 21.5641 5.89722 19.9999 5.89722C18.4358 5.89722 16.9357 6.51856 15.8297 7.62457C14.7237 8.73057 14.1024 10.2306 14.1024 11.7948V20C14.1044 21.5635 14.7264 23.0624 15.832 24.168C16.9376 25.2735 18.4364 25.8955 19.9999 25.8976ZM15.6409 11.7948C15.6409 10.6387 16.1001 9.52992 16.9176 8.71244C17.7351 7.89496 18.8438 7.43571 19.9999 7.43571C21.156 7.43571 22.2648 7.89496 23.0822 8.71244C23.8997 9.52992 24.359 10.6387 24.359 11.7948V20C24.359 21.1561 23.8997 22.2649 23.0822 23.0823C22.2648 23.8998 21.156 24.3591 19.9999 24.3591C18.8438 24.3591 17.7351 23.8998 16.9176 23.0823C16.1001 22.2649 15.6409 21.1561 15.6409 20V11.7948ZM20.7692 29.9681V33.3336C20.7692 33.5376 20.6881 33.7333 20.5439 33.8775C20.3996 34.0218 20.2039 34.1028 19.9999 34.1028C19.7959 34.1028 19.6003 34.0218 19.456 33.8775C19.3117 33.7333 19.2307 33.5376 19.2307 33.3336V29.9681C16.7205 29.7718 14.3765 28.6368 12.6657 26.7894C10.9549 24.942 10.0031 22.5179 9.99976 20C9.99976 19.796 10.0808 19.6003 10.2251 19.4561C10.3693 19.3118 10.565 19.2308 10.769 19.2308C10.973 19.2308 11.1687 19.3118 11.3129 19.4561C11.4572 19.6003 11.5382 19.796 11.5382 20C11.5382 22.2442 12.4297 24.3965 14.0166 25.9833C15.6035 27.5702 17.7558 28.4617 19.9999 28.4617C22.2441 28.4617 24.3964 27.5702 25.9832 25.9833C27.5701 24.3965 28.4616 22.2442 28.4616 20C28.4616 19.796 28.5427 19.6003 28.6869 19.4561C28.8312 19.3118 29.0268 19.2308 29.2309 19.2308C29.4349 19.2308 29.6305 19.3118 29.7748 19.4561C29.9191 19.6003 30.0001 19.796 30.0001 20C29.9968 22.5179 29.0449 24.942 27.3342 26.7894C25.6234 28.6368 23.2794 29.7718 20.7692 29.9681Z" fill="#CDCDCD"/>
</svg>
